<?xml version="1.0" standalone="no"?>
<!DOCTYPE svg PUBLIC "-//W3C//DTD SVG 20010904//EN"
 "http://www.w3.org/TR/2001/REC-SVG-20010904/DTD/svg10.dtd">
<svg version="1.0" xmlns="http://www.w3.org/2000/svg"
 width="512.000000pt" height="512.000000pt" viewBox="0 0 512.000000 512.000000"
 preserveAspectRatio="xMidYMid meet">
<metadata>
Created by potrace 1.14, written by Peter Selinger 2001-2017
</metadata>
<g transform="translate(0.000000,512.000000) scale(0.100000,-0.100000)"
fill="#000000" stroke="none">
<path d="M0 2560 l0 -2560 2560 0 2560 0 0 2560 0 2560 -2560 0 -2560 0 0
-2560z m3890 0 l0 -1330 -1330 0 -1330 0 0 355 c0 227 4 355 10 355 6 0 11
-126 12 -342 l3 -343 1305 0 1305 0 0 1305 0 1305 -1305 0 -1305 0 -3 -417
c-1 -267 -6 -418 -12 -418 -6 0 -10 153 -10 430 l0 430 1330 0 1330 0 0 -1330z
m-1306 -28 c36 -98 66 -181 66 -185 0 -4 -22 -7 -49 -7 -48 0 -50 1 -61 35
l-12 35 -62 0 c-63 0 -63 0 -72 -32 -9 -31 -12 -33 -63 -36 -48 -3 -53 -1 -46
15 3 10 34 90 66 177 33 88 62 163 65 168 3 4 27 8 53 8 l49 0 66 -178z m296
136 c6 -24 21 -79 33 -122 l21 -79 23 84 c13 46 28 101 33 122 l11 37 69 0 70
0 0 -186 0 -185 -47 3 -48 3 2 125 c2 69 1 121 -2 115 -3 -5 -20 -62 -39 -125
l-33 -115 -40 -3 -39 -3 -35 123 -34 123 -3 -122 -3 -123 -44 0 -45 0 0 185 0
185 70 0 69 0 11 -42z m594 -25 c74 -199 106 -287 106 -294 0 -5 -22 -9 -49
-9 -48 0 -50 1 -61 35 -11 35 -12 35 -71 35 -59 0 -60 -1 -75 -35 -14 -33 -17
-35 -64 -35 l-49 0 19 53 c34 97 111 300 116 308 3 5 27 9 54 9 l48 0 26 -67z
m-894 -470 c55 -34 75 -76 75 -158 0 -88 -22 -131 -85 -162 -37 -19 -60 -23
-147 -23 l-103 0 0 186 0 186 113 -3 c94 -4 118 -8 147 -26z m530 -13 l0 -40
-100 0 -100 0 0 -30 0 -30 90 0 90 0 0 -40 0 -40 -90 0 -90 0 0 -30 0 -30 100
0 100 0 0 -45 0 -45 -150 0 -150 0 0 185 0 185 150 0 150 0 0 -40z m260 -91
c19 -72 36 -126 38 -121 1 5 17 63 35 128 l32 119 53 3 c28 2 52 2 52 0 0 -2
-26 -84 -58 -183 l-58 -180 -59 0 -59 0 -43 135 c-24 74 -50 156 -58 183 l-14
47 53 0 52 0 34 -131z m-431 -444 c3 -20 3 -20 -17 -1 -23 20 -52 16 -52 -8 0
-8 13 -17 29 -21 56 -12 65 -59 13 -72 -30 -7 -56 7 -60 33 -3 18 -2 18 11 2
8 -10 26 -18 41 -18 39 0 30 31 -12 42 -38 10 -50 31 -31 54 18 22 73 15 78
-11z m136 15 c-3 -5 -15 -10 -26 -10 -16 0 -19 -8 -21 -57 l-2 -58 -3 58 c-3
49 -7 57 -23 57 -11 0 -20 5 -20 10 0 6 23 10 51 10 31 0 48 -4 44 -10z m51
-68 c4 -29 8 -33 32 -30 25 3 27 7 30 56 4 66 22 69 22 3 0 -55 -17 -81 -54
-81 -35 0 -46 19 -45 80 1 30 3 44 6 30 2 -14 6 -40 9 -58z m199 72 c25 -10
36 -49 24 -81 -13 -35 -26 -43 -66 -43 l-33 0 0 65 0 65 29 0 c16 0 37 -3 46
-6z m82 -91 c-2 -21 -4 -6 -4 32 0 39 2 55 4 38 2 -18 2 -50 0 -70z m145 80
c22 -20 23 -70 1 -95 -31 -35 -87 -17 -98 32 -14 63 51 105 97 63z"/>
<path d="M2451 2551 c-7 -24 -15 -49 -18 -57 -4 -10 4 -14 32 -14 35 0 37 1
31 26 -4 15 -13 40 -19 57 l-13 30 -13 -42z"/>
<path d="M3381 2549 c-7 -23 -15 -47 -18 -55 -4 -10 4 -14 32 -14 36 0 36 0
30 33 -9 37 -23 77 -28 77 -2 0 -9 -18 -16 -41z"/>
<path d="M2420 2014 l0 -107 47 7 c26 3 56 14 66 24 26 26 32 81 14 124 -12
29 -23 39 -54 47 -75 21 -73 23 -73 -95z"/>
<path d="M3270 1584 c0 -43 1 -45 26 -42 34 4 49 27 40 61 -5 22 -12 27 -36
27 -29 0 -30 -2 -30 -46z"/>
<path d="M3486 1624 c-33 -32 -14 -84 31 -84 33 0 49 44 28 76 -18 28 -37 30
-59 8z"/>
</g>
</svg>
